<svg width="18" height="18" viewBox="0 0 18 18" fill="none" xmlns="http://www.w3.org/2000/svg">
<path d="M4.00056 0.000419442L17.0006 0.000418874C17.2658 0.000418862 17.5201 0.105775 17.7077 0.293311C17.8952 0.480848 18.0006 0.735202 18.0006 1.00042L18.0006 14.0004C18.0006 14.2656 17.8952 14.52 17.7077 14.7075C17.5201 14.8951 17.2658 15.0004 17.0006 15.0004C16.7353 15.0004 16.481 14.8951 16.2934 14.7075C16.1059 14.52 16.0006 14.2656 16.0006 14.0004L16.0006 3.41417L1.70806 17.7079C1.52042 17.8956 1.26592 18.001 1.00056 18.001C0.735192 18.001 0.480697 17.8956 0.293056 17.7079C0.105415 17.5203 -3.01592e-08 17.2658 -4.37357e-08 17.0004C-5.73122e-08 16.7351 0.105415 16.4806 0.293056 16.2929L14.5868 2.00042L4.00056 2.00042C3.73534 2.00042 3.48099 1.89506 3.29345 1.70753C3.10591 1.51999 3.00056 1.26564 3.00056 1.00042C3.00056 0.735203 3.10591 0.480848 3.29345 0.293312C3.48099 0.105776 3.73534 0.000419453 4.00056 0.000419442Z" fill="#3451BE"/>
</svg>
